<svg xmlns="http://www.w3.org/2000/svg" width="4000" height="4000" viewBox="0 0 4000 4000" version="1.1"><path d="M 1628 823.022 C 1616.901 824.779, 1581.162 833.972, 1569.500 838.070 C 1487.526 866.875, 1419.416 916.942, 1378.464 978.500 C 1356.668 1011.264, 1348.128 1033.727, 1343.107 1071.500 C 1336.059 1124.526, 1335.833 1126.987, 1334.977 1160.078 C 1334.293 1186.512, 1333.654 1195.941, 1331.590 1210.078 C 1327.888 1235.427, 1325.234 1264.041, 1323.944 1292.500 C 1322.592 1322.323, 1323.713 1347.941, 1327.536 1374.657 C 1328.926 1384.366, 1330.764 1400.002, 1331.620 1409.405 C 1333.514 1430.206, 1333.737 1477.385, 1332.005 1491 C 1331.340 1496.225, 1330.463 1511.075, 1330.056 1524 L 1329.315 1547.500 1322.141 1584.767 C 1301.305 1693.011, 1290.577 1727.473, 1256.391 1795.973 C 1230.355 1848.144, 1192.239 1915.448, 1165.318 1956.788 C 1155.186 1972.346, 1146.038 1987.078, 1144.989 1989.525 C 1141.378 1997.949, 1135.241 2018.526, 1132.497 2031.412 C 1130.051 2042.892, 1129.806 2045.721, 1130.285 2056.912 C 1130.582 2063.835, 1131.779 2074.225, 1132.946 2080 C 1135.860 2094.420, 1135.880 2106.845, 1133.005 2115.486 C 1128.819 2128.064, 1117.853 2139.531, 1105.541 2144.206 C 1096.829 2147.514, 1078.563 2147.503, 1068.614 2144.183 C 1039.206 2134.371, 1017.835 2114.029, 993.111 2072.316 C 987.955 2063.617, 978.678 2047.950, 972.495 2037.500 C 963.578 2022.430, 895.728 1895.387, 882.208 1868.448 C 876.403 1856.881, 874.084 1845.098, 871 1811.500 C 869.889 1799.400, 868.342 1785.675, 867.561 1781 C 866.780 1776.325, 865.833 1767.775, 865.455 1762 C 864.844 1752.652, 864.382 1750.756, 861.246 1744.722 C 847.931 1719.104, 812.150 1700.507, 765.500 1694.959 C 752.506 1693.413, 724.207 1693.394, 711.500 1694.923 C 700.475 1696.249, 682.184 1700.087, 672.041 1703.204 C 655.816 1708.190, 607.297 1731.367, 592 1741.438 C 562.899 1760.598, 539.118 1790.824, 530.975 1819 C 527.613 1830.630, 527.139 1849.804, 529.922 1861.500 C 532.419 1871.989, 538.900 1885.928, 545.365 1894.710 C 551.719 1903.341, 557.892 1907.154, 573.440 1912.049 C 580.623 1914.311, 591 1917.765, 596.500 1919.725 C 619.272 1927.840, 649.216 1937.440, 676.500 1945.372 C 714.997 1956.564, 727.856 1961.280, 750.500 1972.510 C 801.859 1997.981, 833.955 2024.515, 905.889 2100.973 C 922.175 2118.283, 944.443 2141.683, 955.374 2152.973 C 1007.448 2206.759, 1022.080 2229.182, 1032.391 2271 C 1041.347 2307.322, 1044.252 2357.773, 1039.991 2403 C 1037.289 2431.692, 1030.883 2464.951, 1024.005 2486 C 1012.473 2521.293, 985.782 2593.505, 980.019 2605 C 948.074 2668.727, 904.390 2733.630, 870.984 2766.997 C 856.013 2781.951, 842.598 2793.423, 809 2820.002 C 740.100 2874.508, 719.618 2896.400, 693.454 2943.500 C 669.603 2986.436, 652.772 3031.111, 646.361 3068.500 C 643.748 3083.739, 643.961 3108.871, 646.801 3120.301 C 654.977 3153.219, 676.415 3171.702, 714.298 3178.496 C 728.377 3181.021, 753.335 3180.173, 768 3176.671 C 808.319 3167.043, 850.340 3142.398, 888.096 3106.235 C 897.975 3096.772, 900.926 3093.070, 912.992 3075 C 931.808 3046.822, 936.123 3039.788, 942.992 3026.097 C 954.638 3002.886, 961.008 2985.654, 978.147 2931 C 984.788 2909.825, 990.827 2890.925, 991.567 2889 C 992.308 2887.075, 1005.532 2850.320, 1020.954 2807.322 L 1048.994 2729.144 1069.962 2653.754 C 1088.985 2585.359, 1091.542 2575.216, 1097.527 2544.432 C 1103.032 2516.117, 1105.930 2504.209, 1115.034 2472.500 C 1132.223 2412.630, 1140.490 2387.508, 1152.603 2358.335 C 1172.231 2311.062, 1197.442 2273.011, 1214.082 2265.544 C 1219.457 2263.131, 1221.168 2262.845, 1228.345 2263.153 C 1235.265 2263.450, 1237.672 2264.063, 1244.244 2267.199 C 1275.833 2282.278, 1292.941 2310.198, 1308.437 2371.967 C 1313.944 2393.915, 1316.458 2411.568, 1315.546 2421.876 C 1315.187 2425.933, 1312.256 2440.108, 1309.031 2453.376 C 1301.225 2485.499, 1296.575 2507.424, 1293.841 2525 C 1291.944 2537.196, 1291.588 2543.473, 1291.597 2564.500 C 1291.607 2588.440, 1291.720 2589.918, 1294.277 2599.371 C 1298.429 2614.725, 1303.009 2623.106, 1312.446 2632.617 C 1319.331 2639.556, 1322.024 2641.473, 1331 2645.823 C 1348.469 2654.289, 1364.101 2657.407, 1377.437 2655.084 C 1385.985 2653.596, 1418.255 2639.412, 1426.500 2633.520 C 1442.916 2621.788, 1457.814 2602.534, 1463.438 2585.779 C 1468.551 2570.549, 1468.747 2544.674, 1463.987 2513.500 C 1462.895 2506.350, 1459.983 2483.850, 1457.516 2463.500 C 1451.114 2410.688, 1446.945 2391.452, 1437.672 2371.942 C 1429.583 2354.921, 1422.731 2346.679, 1398.204 2324.467 C 1388.467 2315.649, 1377.575 2304.785, 1374 2300.326 C 1369.556 2294.783, 1360.557 2279.768, 1345.553 2252.859 C 1333.482 2231.212, 1321.823 2210.575, 1319.646 2207 C 1309.632 2190.563, 1299.748 2168.415, 1295.333 2152.521 C 1292.244 2141.402, 1291.042 2120.925, 1292.964 2112.148 C 1294.807 2103.729, 1299.421 2094.795, 1305.178 2088.495 C 1310.350 2082.837, 1318.710 2076.377, 1319.648 2077.315 C 1319.927 2077.594, 1319.445 2082.601, 1318.578 2088.441 C 1315.997 2105.815, 1316.801 2112.434, 1322.193 2118.206 C 1324.887 2121.091, 1325.315 2121.208, 1331.823 2120.840 C 1344.966 2120.098, 1357.530 2111.172, 1370.901 2093.081 C 1378.096 2083.344, 1383.623 2074.165, 1396.195 2051.075 C 1419.688 2007.924, 1420.414 2007.333, 1456.500 2001.981 C 1472.256 1999.644, 1483.248 1996.934, 1489.115 1993.941 C 1494.743 1991.070, 1499.324 1986.160, 1508.653 1972.999 C 1524.094 1951.215, 1530.936 1946.644, 1550.921 1944.764 C 1564.797 1943.459, 1593.474 1944.808, 1611.490 1947.614 C 1621.706 1949.205, 1623.015 1949.202, 1634.412 1947.564 C 1656.792 1944.347, 1659.229 1944.148, 1664.970 1945.073 C 1681.626 1947.755, 1696.413 1956.371, 1712.672 1972.864 C 1720.873 1981.185, 1735.511 2000.072, 1738.806 2006.585 C 1748.557 2025.861, 1744.177 2075.453, 1728.126 2127.522 C 1725.918 2134.684, 1719.097 2152.459, 1712.969 2167.022 C 1686.400 2230.161, 1662.261 2294.840, 1638.335 2367 C 1621.186 2418.721, 1618.118 2431.204, 1609.093 2486 C 1606.330 2502.775, 1602.734 2523.475, 1601.102 2532 C 1596.501 2556.027, 1595.542 2567.059, 1595.538 2596 C 1595.530 2646.714, 1602.464 2685.689, 1616.587 2714.325 C 1621.906 2725.110, 1626.374 2731.313, 1633.537 2737.860 C 1645.672 2748.951, 1657.709 2751.342, 1677.446 2746.583 C 1725.093 2735.096, 1783.640 2691.870, 1811.326 2647.738 C 1825.482 2625.175, 1829.409 2605.695, 1829.316 2558.500 C 1829.261 2530.758, 1827.706 2507.938, 1823.974 2480.113 C 1822.664 2470.345, 1822.011 2459.698, 1822.006 2448 C 1821.999 2434.765, 1821.513 2427.941, 1820.011 2420 C 1815.454 2395.897, 1809.842 2353.005, 1807.058 2321 C 1802.620 2269.975, 1803.472 2201.947, 1808.979 2167.665 C 1809.495 2164.455, 1810.191 2142.405, 1810.526 2118.665 L 1811.136 2075.500 1825.799 2016.057 C 1839.846 1959.108, 1840.651 1956.285, 1844.980 1948.767 C 1854.549 1932.155, 1877.684 1901.972, 1894.568 1884.075 C 1910.986 1866.671, 1947.428 1841.771, 1980.476 1825.374 C 2004.513 1813.449, 2018.651 1810.017, 2043.789 1810.006 C 2110.941 1809.976, 2162.195 1838.899, 2188.459 1891.642 C 2194.797 1904.371, 2201.578 1924.023, 2205.664 1941.500 C 2208.104 1951.943, 2208.460 1955.446, 2208.406 1968.500 C 2208.345 1983.214, 2208.247 1983.872, 2203.263 2003 C 2196.795 2027.827, 2196.370 2030.228, 2193.969 2055.500 C 2192.872 2067.050, 2191.553 2078.975, 2191.038 2082 C 2190.523 2085.025, 2190.012 2118.775, 2189.902 2157 C 2189.724 2218.729, 2189.889 2227.339, 2191.371 2234 C 2198.979 2268.180, 2218.105 2299.210, 2253.047 2334.064 C 2274.396 2355.358, 2285.257 2363.278, 2297.460 2366.451 C 2319.268 2372.120, 2343.812 2360.556, 2356.789 2338.500 C 2371.210 2313.989, 2375.017 2272.817, 2366.926 2228.867 C 2362.852 2206.740, 2355.961 2186.354, 2336.546 2139 C 2318.135 2094.091, 2308.509 2064.325, 2287.424 1987.094 C 2281.629 1965.867, 2272.668 1933.875, 2267.510 1916 C 2250.572 1857.296, 2246.859 1839.592, 2246.641 1816.500 C 2246.472 1798.578, 2247.747 1793.722, 2254.629 1786.068 C 2271.484 1767.321, 2309.231 1756.480, 2336.251 1762.625 C 2349.210 1765.573, 2349.232 1765.591, 2368.735 1789.500 C 2385.283 1809.787, 2387.551 1812.148, 2397.852 1819.825 C 2431.870 1845.176, 2462.483 1858.422, 2495.211 1861.953 C 2521.154 1864.751, 2541.178 1862.192, 2577.793 1851.397 C 2614.415 1840.600, 2648.443 1827.064, 2687.008 1807.952 C 2733.484 1784.921, 2766.217 1765.333, 2841.500 1715.500 C 2871.266 1695.797, 2878.451 1690.550, 2889.548 1680.416 C 2912.253 1659.681, 2917.221 1655.420, 2929 1646.579 C 2953.023 1628.549, 2973.036 1622.608, 2982.076 1630.821 C 2985.647 1634.065, 2988.443 1641.749, 2989.965 1652.500 C 2990.642 1657.287, 2991.338 1684.798, 2991.696 1721 C 2992.340 1786.021, 2991.887 1797.632, 2987.506 1828.500 C 2982.202 1865.860, 2980.943 1884.257, 2978.981 1953 C 2977.364 2009.629, 2974.782 2043.200, 2969.999 2069.760 C 2968.913 2075.792, 2961.928 2103.400, 2954.476 2131.113 L 2940.926 2181.500 2936.001 2220.799 C 2930.116 2267.760, 2929.410 2278.217, 2930.930 2296 C 2932.203 2310.894, 2938.881 2352.677, 2942.118 2366 C 2949.155 2394.964, 2963.868 2406.070, 3004.349 2412.978 C 3026.020 2416.676, 3040.998 2415.244, 3055.500 2408.089 C 3070.296 2400.788, 3082.186 2386.460, 3089.829 2366.720 C 3096.984 2348.243, 3097.982 2341.725, 3099.264 2305.117 C 3099.892 2287.178, 3100.397 2261.250, 3100.385 2247.500 C 3100.363 2219.597, 3099.299 2209.351, 3091.559 2162.500 L 3087.264 2136.500 3089.086 2091 C 3090.088 2065.975, 3090.933 2036.275, 3090.963 2025 C 3090.995 2012.586, 3091.611 2000.161, 3092.523 1993.500 C 3097.258 1958.921, 3094.744 1903.442, 3085.952 1848.500 C 3080.977 1817.407, 3080.850 1783.465, 3085.592 1751.500 C 3090.467 1718.629, 3096.795 1708.504, 3113.931 1706.161 C 3125.718 1704.549, 3141.401 1708.540, 3147.095 1714.601 C 3150.493 1718.218, 3154.225 1717.755, 3157.981 1713.250 C 3163.239 1706.945, 3169.732 1692.306, 3174.726 1675.500 C 3180.788 1655.101, 3185.986 1644.501, 3191.500 1641.293 C 3197.782 1637.638, 3198.929 1637.330, 3208.757 1636.656 C 3220.005 1635.884, 3222.662 1634.803, 3231 1627.606 C 3234.575 1624.519, 3239.438 1621.043, 3241.807 1619.881 C 3246.010 1617.817, 3246.321 1617.805, 3254.807 1619.359 C 3272.977 1622.686, 3323.190 1637.983, 3351 1648.662 C 3367.969 1655.179, 3401.127 1673.354, 3420.500 1686.759 C 3446.171 1704.522, 3457.913 1716.130, 3487 1752.500 C 3499.316 1767.900, 3513.630 1785.225, 3518.809 1791 C 3536.366 1810.579, 3544.751 1824.664, 3547.452 1839.112 C 3552.191 1864.469, 3552.162 1922.938, 3547.396 1952 C 3545.358 1964.426, 3534.189 1997.912, 3524.656 2020.175 C 3498.793 2080.574, 3467.550 2129.214, 3441.110 2150.241 C 3426.581 2161.796, 3412.622 2167.084, 3377.248 2174.436 C 3352.173 2179.647, 3339.491 2183.463, 3330 2188.653 C 3318.166 2195.124, 3310.328 2202.507, 3302.284 2214.760 C 3290.458 2232.772, 3283.866 2251.354, 3283.705 2267.130 C 3283.614 2276.063, 3283.841 2277.235, 3286.839 2283.324 C 3291.990 2293.787, 3298.847 2298.085, 3317.500 2302.540 C 3355.431 2311.600, 3398.588 2305.320, 3441.500 2284.494 C 3491.749 2260.107, 3524.263 2218.403, 3549.476 2146 C 3555.558 2128.536, 3563.385 2100.383, 3576.958 2047.152 C 3601.380 1951.377, 3607.136 1935.695, 3647.458 1855.084 C 3680.149 1789.727, 3696.202 1751.780, 3700.662 1729.306 C 3703.350 1715.769, 3703.108 1685.938, 3700.198 1672 C 3696.183 1652.767, 3697.039 1646.130, 3707.145 1618.156 L 3712.327 1603.811 3711.333 1593.656 C 3710.477 1584.900, 3710.575 1582.854, 3712.048 1578.818 C 3714.572 1571.901, 3721.625 1561.857, 3732.420 1549.808 C 3742.853 1538.163, 3743.139 1537.425, 3740.376 1529.285 C 3736.264 1517.172, 3728.540 1510.991, 3716.555 1510.222 C 3706.913 1509.603, 3705.567 1510.438, 3704.087 1517.961 C 3702.905 1523.971, 3701.764 1525.433, 3700.607 1522.418 C 3699.626 1519.862, 3699.922 1515.830, 3701.461 1510.756 C 3703.404 1504.352, 3702.121 1500.931, 3696.338 1497.101 C 3687.803 1491.447, 3682.806 1492.037, 3673.122 1499.845 C 3654.767 1514.643, 3635.267 1547.173, 3627.617 1575.759 C 3623.683 1590.459, 3623.538 1595.267, 3626.404 1616 C 3629.873 1641.099, 3632.003 1662.356, 3631.987 1671.722 C 3631.976 1678.247, 3631.262 1681.619, 3627.556 1692.655 C 3625.126 1699.890, 3619.890 1713.390, 3615.922 1722.655 C 3611.954 1731.920, 3606.847 1744.450, 3604.574 1750.500 C 3600.478 1761.398, 3600.395 1761.523, 3595.551 1763.938 C 3582.829 1770.280, 3566.778 1764.571, 3549.911 1747.704 C 3542.271 1740.064, 3526.409 1719.527, 3515.221 1702.793 C 3489.018 1663.594, 3466.767 1619.143, 3454.507 1581.500 C 3451.400 1571.961, 3451.227 1570.609, 3450.765 1552.170 L 3450.280 1532.839 3445.141 1522.502 C 3434.335 1500.762, 3421.557 1492.811, 3392.805 1489.937 C 3350.352 1485.692, 3285.722 1506.091, 3262.644 1531.017 C 3256.477 1537.678, 3254.724 1542.167, 3251.548 1559.416 C 3248.553 1575.688, 3237.369 1594.801, 3222.849 1608.460 C 3212.680 1618.026, 3210.926 1618.433, 3198.333 1614.150 C 3189.028 1610.984, 3185.407 1610.405, 3183.435 1611.765 C 3182.118 1612.673, 3174.938 1624.640, 3163.494 1645 C 3155.800 1658.687, 3154.679 1661.319, 3153.911 1667.500 C 3152.455 1679.209, 3152.847 1678.639, 3145.766 1679.339 L 3139.500 1679.959 3133.500 1673.730 C 3114.968 1654.488, 3110.260 1624.148, 3118.511 1577.130 C 3119.898 1569.227, 3124.411 1548.302, 3128.540 1530.630 C 3137.436 1492.552, 3137.546 1492.047, 3139.440 1480.500 C 3144.435 1450.050, 3146.420 1415.357, 3145.695 1371.157 C 3145.113 1335.628, 3144.455 1325.841, 3141.010 1301.500 C 3139.816 1293.062, 3138.222 1270.814, 3136.997 1245.500 C 3135.739 1219.486, 3134.227 1198.552, 3133.025 1190.500 C 3127.674 1154.639, 3127.793 1131.196, 3133.480 1101.500 C 3138.466 1075.459, 3141.467 1066.967, 3151.772 1049.727 C 3165.949 1026.009, 3168.933 1019.134, 3171.017 1005.390 C 3175.901 973.165, 3155.134 939.842, 3118.433 921.017 C 3105.200 914.229, 3099.426 912.808, 3082.800 912.249 C 3058.745 911.441, 3044.027 914.790, 3028.154 924.683 C 3004.715 939.292, 2990.780 963.248, 2983.762 1001 C 2981.888 1011.079, 2981.626 1016.085, 2981.640 1041.500 C 2981.653 1065.943, 2982.001 1072.936, 2983.853 1086 C 2985.062 1094.525, 2987.361 1115.675, 2988.962 1133 C 2992.208 1168.136, 2991.712 1165.789, 3007.960 1223 C 3018.546 1260.275, 3025.592 1288.505, 3027.074 1299.579 C 3028.541 1310.544, 3027.724 1341.205, 3025.584 1355.500 C 3021.256 1384.405, 3016.021 1403.316, 3007.593 1420.500 C 2985.688 1465.157, 2943.678 1509.631, 2878.500 1557.162 C 2858.006 1572.108, 2835.728 1587.216, 2796.697 1612.636 C 2776.789 1625.603, 2748.111 1644.679, 2732.969 1655.027 C 2699.506 1677.895, 2685.942 1686.202, 2667.572 1695.076 C 2649.121 1703.988, 2639.948 1707.074, 2618.920 1711.442 C 2609.339 1713.432, 2596.679 1716.418, 2590.787 1718.078 C 2573.362 1722.985, 2561.073 1725, 2548.566 1725 C 2538.845 1725, 2535.128 1724.480, 2522.851 1721.401 C 2457.068 1704.905, 2418.892 1671.250, 2408.542 1620.628 C 2406.175 1609.054, 2405.170 1591.084, 2406.156 1578 C 2406.633 1571.675, 2407.412 1554.125, 2407.886 1539 C 2408.700 1513.064, 2408.983 1510.227, 2412.860 1489.116 C 2422.169 1438.426, 2434.952 1398.232, 2469.508 1311 C 2489.981 1259.320, 2494.725 1246.089, 2521.077 1167.178 C 2539.800 1111.111, 2548.052 1087.745, 2551.093 1082.178 C 2553.400 1077.955, 2560.596 1066.111, 2567.085 1055.859 C 2594.381 1012.727, 2599.662 999.215, 2598.687 975 C 2597.445 944.147, 2586.091 927.290, 2561 919.048 C 2557.425 917.873, 2544.375 915.139, 2532 912.972 C 2519.625 910.805, 2505.225 908.100, 2500 906.961 C 2486.435 904.003, 2458.828 903.185, 2446.320 905.371 C 2441.271 906.254, 2434.640 907.911, 2431.584 909.054 C 2410.001 917.130, 2395.637 938.224, 2386.654 975.036 C 2383.260 988.944, 2380.875 1003.472, 2376.053 1039.606 C 2373.844 1056.164, 2371.157 1074.389, 2370.082 1080.106 C 2367.125 1095.840, 2366.319 1102.161, 2363.529 1131.500 C 2362.116 1146.350, 2360.498 1160.975, 2359.933 1164 C 2359.368 1167.025, 2358.523 1180.075, 2358.054 1193 C 2357.340 1212.717, 2356.637 1219.800, 2353.685 1237 C 2349.705 1260.186, 2347.530 1277.209, 2342.507 1324.500 C 2337.659 1370.136, 2334.410 1395.499, 2330.787 1416 C 2327.278 1435.859, 2327.451 1433.411, 2325.104 1496.500 L 2323.356 1543.500 2326.694 1594 L 2330.032 1644.500 2335.098 1661.903 C 2340.565 1680.678, 2340.685 1682.704, 2336.720 1689.251 C 2333.908 1693.894, 2317.530 1712.421, 2305.500 1724.565 C 2295.202 1734.962, 2286.906 1739.772, 2274.519 1742.528 C 2267.635 1744.059, 2266.403 1744.067, 2259.265 1742.622 C 2248.959 1740.536, 2236.987 1734.494, 2229.208 1727.452 C 2219.860 1718.989, 2218.052 1714.639, 2215.451 1694.331 C 2214.617 1687.824, 2212.398 1676.875, 2210.520 1670 C 2208.641 1663.125, 2204.853 1648.495, 2202.103 1637.489 C 2192.118 1597.538, 2188.790 1587.748, 2162.930 1522.244 C 2143.518 1473.073, 2136.111 1455.502, 2130.010 1444.149 C 2123.637 1432.290, 2121.070 1426.098, 2116.534 1411.637 C 2102.145 1365.774, 2090.996 1320.716, 2079.629 1262.500 C 2069.329 1209.744, 2068.231 1201.927, 2064.525 1155 C 2062.592 1130.525, 2060.333 1106.351, 2059.506 1101.281 C 2053.566 1064.877, 2052.948 1039.667, 2057.611 1023.924 C 2058.495 1020.941, 2062.493 1011.750, 2066.496 1003.500 C 2076.868 982.125, 2077.500 979.912, 2077.500 965 C 2077.500 953.104, 2077.351 952.186, 2074.413 946 C 2065.055 926.292, 2038.269 915.866, 2011.500 921.511 C 1990.729 925.891, 1978.005 939.979, 1970.415 967 C 1967.985 975.652, 1967.682 978.732, 1967.017 1001.500 L 1966.288 1026.500 1961.209 1049 C 1958.415 1061.375, 1952.250 1090.175, 1947.509 1113 C 1926.279 1215.202, 1919.968 1240.928, 1896.361 1321.500 C 1874.766 1395.203, 1872.936 1403.354, 1868.520 1445.500 C 1866.069 1468.890, 1862.976 1490.422, 1860.906 1498.500 C 1860.343 1500.700, 1854.299 1520.050, 1847.475 1541.500 C 1840.652 1562.950, 1834.408 1583.654, 1833.599 1587.509 C 1831.233 1598.788, 1829.208 1616.629, 1827.016 1645.500 C 1822.735 1701.888, 1819.029 1719.618, 1806.473 1743.802 C 1794.792 1766.299, 1780.625 1782.054, 1746.500 1810.500 C 1733.850 1821.045, 1721.106 1832.292, 1718.181 1835.493 C 1715.255 1838.694, 1708.058 1848.105, 1702.188 1856.406 C 1696.317 1864.708, 1688.538 1874.626, 1684.900 1878.448 L 1678.285 1885.395 1668.892 1885.805 C 1655.835 1886.376, 1644.886 1884.094, 1624.500 1876.555 C 1596.815 1866.316, 1587.053 1864.644, 1571.132 1867.412 C 1551.711 1870.788, 1542.057 1877.029, 1514.731 1903.870 C 1493.936 1924.295, 1489.915 1929.293, 1477.174 1950.548 C 1467.115 1967.329, 1466.057 1968.714, 1460.956 1971.781 C 1450.889 1977.836, 1448.016 1978.331, 1420.418 1978.759 L 1395.336 1979.148 1386.935 1993.324 C 1372.845 2017.100, 1357.182 2049.350, 1348.019 2073.451 C 1346.214 2078.197, 1345.798 2075.577, 1347.369 2069.361 C 1350.296 2057.780, 1349.890 2050.736, 1346.077 2046.923 C 1343.510 2044.356, 1342.438 2044, 1337.285 2044 C 1334.058 2044, 1326.107 2044.696, 1319.618 2045.547 C 1310.474 2046.747, 1307.497 2046.828, 1306.388 2045.907 C 1302.799 2042.928, 1294.831 2029.230, 1292.315 2021.715 C 1289.790 2014.169, 1289.565 2012.237, 1289.558 1998 C 1289.550 1984.919, 1289.909 1981.174, 1291.856 1974 C 1296.317 1957.560, 1314.313 1914.473, 1346.985 1842 C 1385.909 1755.661, 1387.668 1750.766, 1414.513 1654 C 1430.439 1596.592, 1440.256 1569.078, 1477.489 1477.500 C 1494.920 1434.626, 1498.349 1424.946, 1505.643 1398.018 C 1518.114 1351.973, 1524.683 1337.749, 1545.365 1312 C 1553.054 1302.427, 1576.827 1278.643, 1588.500 1268.844 C 1600.855 1258.473, 1625.251 1240.189, 1658.388 1216.466 C 1694.057 1190.929, 1714.011 1174.952, 1731.374 1158.025 C 1747.673 1142.135, 1758.518 1129.478, 1768.173 1115.075 C 1808.326 1055.181, 1814.444 962.929, 1782.593 897.639 C 1763.574 858.654, 1735.262 834.864, 1696 824.878 C 1688.508 822.973, 1684.297 822.683, 1660.500 822.434 C 1645.650 822.278, 1631.025 822.543, 1628 823.022 M 1987.122 1366.599 C 1976.651 1378.494, 1971.572 1392.092, 1961.964 1433.950 C 1955.542 1461.924, 1953.604 1467.819, 1941.235 1497 C 1923.351 1539.189, 1915.968 1560.085, 1910.847 1583 C 1908.918 1591.629, 1908.501 1596.352, 1908.504 1609.500 C 1908.508 1625.026, 1908.606 1625.782, 1911.818 1635 C 1915.949 1646.856, 1921.638 1658.305, 1927.664 1666.890 C 1930.216 1670.525, 1940.674 1681.722, 1950.902 1691.771 L 1969.500 1710.042 1974.500 1709.407 C 1979.955 1708.713, 1982.774 1707.707, 2000 1700.306 C 2006.325 1697.588, 2016.900 1693.165, 2023.500 1690.475 C 2037.270 1684.865, 2042.997 1680.286, 2050.658 1668.763 C 2062.650 1650.725, 2068.630 1626.444, 2069.689 1591.500 C 2070.836 1553.635, 2065.471 1511.984, 2053.007 1462 C 2048.474 1443.824, 2047.695 1439.645, 2044.985 1419 C 2041.066 1389.142, 2036.405 1377.503, 2025.310 1369.870 C 2018.885 1365.449, 2010.653 1362.942, 2000.454 1362.300 L 1991.407 1361.730 1987.122 1366.599" stroke="none" fill="#040404" fill-rule="evenodd"/></svg>